<?xml version="1.0" encoding="utf-8"?>
<!-- Generator: Adobe Illustrator 17.1.0, SVG Export Plug-In . SVG Version: 6.00 Build 0)  -->
<!DOCTYPE svg PUBLIC "-//W3C//DTD SVG 1.1//EN" "http://www.w3.org/Graphics/SVG/1.1/DTD/svg11.dtd">
<svg version="1.1" xmlns="http://www.w3.org/2000/svg" xmlns:xlink="http://www.w3.org/1999/xlink" x="0px" y="0px"
	 viewBox="0 0 144 144" enable-background="new 0 0 144 144" xml:space="preserve">
<g id="Layer_1">
</g>
<g id="Layer_2">
	<path display="none" d="M44.478,106.247c-0.911,0.909-2.312,0.909-3.224,0L8.622,73.61c-0.911-0.909-0.911-2.311,0-3.22
		l32.633-32.637c0.911-0.909,2.312-0.909,3.224,0l3.501,3.504c0.911,0.909,0.911,2.31,0,3.219L20.454,72L47.98,99.524
		c0.911,0.909,0.911,2.311,0,3.219L44.478,106.247z M63.244,118.431c-0.347,1.191-1.61,1.892-2.73,1.542l-4.343-1.191
		c-1.189-0.351-1.892-1.612-1.54-2.801l26.124-90.412c0.347-1.191,1.61-1.892,2.73-1.542l4.343,1.191
		c1.189,0.351,1.892,1.612,1.54,2.801L63.244,118.431z M102.745,106.247c-0.911,0.909-2.313,0.909-3.224,0l-3.501-3.504
		c-0.911-0.909-0.911-2.31,0-3.219L123.546,72L96.02,44.476c-0.911-0.909-0.911-2.311,0-3.219l3.501-3.504
		c0.911-0.909,2.312-0.909,3.224,0l32.633,32.637c0.911,0.909,0.911,2.311,0,3.22L102.745,106.247z"/>
	<g display="none">
		<path display="inline" d="M137.236,102.443v6.524c0,3.602-4.892,6.523-10.873,6.523H17.637c-5.98,0-10.873-2.922-10.873-6.523
			v-6.524h10.873h108.727H137.236z M24.16,87.222V39.382c0-5.981,4.892-10.873,10.873-10.873h73.934
			c5.981,0,10.873,4.892,10.873,10.873v47.839c0,5.981-4.892,10.873-10.873,10.873H35.033C29.052,98.095,24.16,93.202,24.16,87.222z
			 M32.858,87.222c0,1.156,1.019,2.175,2.175,2.175h73.934c1.156,0,2.175-1.019,2.175-2.175V39.382c0-1.156-1.019-2.175-2.175-2.175
			H35.033c-1.156,0-2.175,1.019-2.175,2.175V87.222z M78.524,107.879c0-0.611-0.476-1.086-1.086-1.086H66.563
			c-0.611,0-1.086,0.476-1.086,1.086c0,0.613,0.476,1.088,1.086,1.088h10.875C78.048,108.967,78.524,108.491,78.524,107.879z"/>
		<g display="inline">
			<path d="M79.332,53.788L76.31,78.778l-7.003,5.492l-5.492-7.003l3.022-24.991L79.332,53.788z M74.058,74.59l-7.059-0.854
				l-0.331,2.734l1.413,1.801l2.155-1.69l1.69,2.155l1.801-1.413L74.058,74.59z M69.62,54.716c-0.101,0.08-0.176,0.192-0.194,0.343
				l-1.969,16.28c-0.018,0.151,0.027,0.278,0.106,0.379c0.172,0.219,0.442,0.252,0.661,0.08c0.101-0.08,0.175-0.192,0.194-0.343
				l1.969-16.28c0.018-0.151-0.027-0.278-0.107-0.379C70.108,54.577,69.838,54.544,69.62,54.716z M80.167,46.879l-0.603,4.986
				l-12.495-1.511l0.616-4.969c0.07-0.708,0.441-1.379,1.013-1.828c0.573-0.449,1.313-0.649,2.034-0.562l7.045,0.836
				c0.704,0.101,1.375,0.471,1.824,1.044C80.051,45.448,80.251,46.189,80.167,46.879z"/>
			<path d="M59.387,78.675c-0.417,0.417-1.06,0.417-1.477,0L42.955,63.718c-0.418-0.417-0.418-1.059,0-1.475L57.91,47.286
				c0.418-0.417,1.06-0.417,1.477,0l1.605,1.606c0.417,0.417,0.417,1.059,0,1.476L48.377,62.98l12.615,12.614
				c0.417,0.417,0.417,1.059,0,1.475L59.387,78.675z M86.09,78.675c-0.418,0.417-1.06,0.417-1.477,0l-1.605-1.606
				c-0.417-0.417-0.417-1.059,0-1.475L95.623,62.98L83.008,50.367c-0.417-0.417-0.417-1.059,0-1.476l1.605-1.606
				c0.417-0.417,1.06-0.417,1.477,0l14.955,14.957c0.418,0.417,0.418,1.059,0,1.475L86.09,78.675z"/>
		</g>
	</g>
	<path display="none" d="M113.396,65.712L43.179,135.93H8.07v-35.109l70.217-70.218L113.396,65.712z M46.387,117.446L26.554,97.613
		l-7.681,7.681v9.03h10.803v10.803h9.03L46.387,117.446z M80.989,44.951c-0.507,0-1.012,0.167-1.435,0.591L33.811,91.284
		c-0.424,0.424-0.591,0.928-0.591,1.435c0,1.098,0.758,1.856,1.856,1.856c0.507,0,1.012-0.167,1.435-0.591l45.741-45.741
		c0.424-0.424,0.591-0.928,0.591-1.435C82.844,45.709,82.086,44.951,80.989,44.951z M132.808,46.3l-14.01,14.01L83.689,25.203
		l14.01-13.925c1.94-2.026,4.724-3.208,7.595-3.208c2.87,0,5.655,1.182,7.681,3.208l19.833,19.747
		c1.94,2.026,3.121,4.81,3.121,7.681C135.93,41.576,134.748,44.361,132.808,46.3z"/>
	<path display="none" d="M135.135,49.886l-21.042,69.328c-1.913,6.502-8.647,11.554-15.228,11.554h-70.63
		c-7.806,0-16.145-6.199-18.977-14.156c-1.223-3.444-1.223-6.811-0.152-9.719c0.152-1.529,0.459-3.06,0.535-4.897
		c0.076-1.223-0.611-2.219-0.459-3.136c0.305-1.837,1.913-3.138,3.138-5.203c2.294-3.826,4.897-10.025,5.739-14.005
		c0.382-1.453-0.384-3.136,0-4.438c0.382-1.455,1.835-2.524,2.601-3.904c2.067-3.518,4.746-10.328,5.127-13.926
		c0.154-1.607-0.612-3.366-0.152-4.592c0.536-1.759,2.219-2.524,3.366-4.056c1.837-2.524,4.897-9.794,5.357-13.848
		c0.152-1.301-0.614-2.603-0.384-3.98c0.306-1.453,2.143-2.984,3.368-4.743c3.212-4.746,3.826-15.228,13.542-12.473l-0.076,0.23
		c1.301-0.308,2.603-0.69,3.902-0.69h58.233c3.598,0,6.811,1.607,8.726,4.286c1.989,2.755,2.448,6.351,1.377,9.947l-20.967,69.328
		c-3.598,11.784-5.587,14.386-15.306,14.386H20.277c-0.996,0-2.219,0.23-2.908,1.147c-0.612,0.92-0.688,1.607-0.076,3.29
		c1.531,4.44,6.81,5.357,11.018,5.357h70.63c2.831,0,6.121-1.607,6.965-4.362l22.955-75.527c0.46-1.453,0.46-2.984,0.382-4.362
		c1.761,0.69,3.369,1.761,4.516,3.29C135.671,42.77,136.207,46.366,135.135,49.886z M47.673,62.205h46.525
		c1.299,0,2.755-1.072,3.212-2.448l1.607-4.897c0.46-1.377-0.306-2.449-1.683-2.449H50.809c-1.301,0-2.754,1.072-3.214,2.449
		l-1.607,4.897C45.53,61.134,46.293,62.205,47.673,62.205z M54.023,42.616h46.525c1.301,0,2.754-1.072,3.214-2.449l1.607-4.897
		c0.458-1.377-0.308-2.448-1.685-2.448H57.159c-1.299,0-2.755,1.072-3.212,2.448l-1.607,4.897
		C51.88,41.545,52.646,42.616,54.023,42.616z"/>
	<path display="none" d="M109.439,72c0,20.671-16.77,37.439-37.439,37.439c-20.669,0-37.439-16.768-37.439-37.439
		c0-20.67,16.77-37.439,37.439-37.439C92.669,34.561,109.439,51.33,109.439,72z M72,98.521c14.624,0,26.519-11.897,26.519-26.521
		S86.624,45.48,72,45.48c-14.624,0-26.519,11.896-26.519,26.52S57.376,98.521,72,98.521z M74.73,55.328l15.55,15.551
		c0.293,0.341,0.439,0.731,0.439,1.121s-0.146,0.779-0.439,1.121L74.68,88.72c-0.486,0.438-1.12,0.586-1.705,0.341
		C72.39,88.82,72,88.234,72,87.6v-9.36H54.84c-0.877,0-1.56-0.683-1.56-1.561v-9.357c0-0.879,0.683-1.562,1.56-1.562H72v-9.359
		c0-0.879,0.683-1.559,1.56-1.559C73.999,54.842,74.389,55.035,74.73,55.328z"/>
	<path display="none" d="M136.653,100.016c0,5.927-4.849,10.775-10.777,10.775H89.241c0,5.725,4.31,10.573,4.31,12.931
		s-1.953,4.31-4.31,4.31H54.759c-2.357,0-4.31-1.953-4.31-4.31c0-2.491,4.31-7.072,4.31-12.931H18.125
		c-5.929,0-10.777-4.849-10.777-10.775V26.743c0-5.927,4.849-10.775,10.777-10.775h107.751c5.929,0,10.777,4.848,10.777,10.775
		V100.016z M128.032,26.743c0-1.145-1.01-2.155-2.157-2.155H18.125c-1.147,0-2.157,1.01-2.157,2.155v56.032
		c0,1.145,1.01,2.155,2.157,2.155h107.751c1.147,0,2.157-1.01,2.157-2.155V26.743z"/>
	<path d="M109.459,80.431c-4.291,17.872-19.033,30.341-37.662,30.341c-9.843,0-19.386-3.888-26.555-10.703l-6.512,6.513
		c-0.604,0.605-1.414,0.959-2.271,0.959c-1.767,0-3.231-1.464-3.231-3.231V81.693c0-1.767,1.464-3.231,3.231-3.231h22.617
		c1.767,0,3.231,1.464,3.231,3.231c0,0.858-0.353,1.665-0.96,2.272l-6.915,6.916c4.745,4.443,11.057,6.967,17.569,6.967
		c8.986,0,17.315-4.645,22.01-12.319c1.214-1.969,1.817-3.886,2.677-5.907c0.25-0.705,0.757-1.161,1.514-1.161h9.693
		c0.91,0,1.614,0.757,1.614,1.615C109.509,80.179,109.509,80.329,109.459,80.431z M110.772,62.307c0,1.767-1.464,3.231-3.231,3.231
		H84.924c-1.767,0-3.231-1.464-3.231-3.231c0-0.858,0.353-1.665,0.96-2.272l6.966-6.965C84.824,48.626,78.512,46.152,72,46.152
		c-8.986,0-17.315,4.645-22.011,12.319c-1.213,1.969-1.817,3.886-2.677,5.907c-0.25,0.705-0.757,1.16-1.514,1.16H35.752
		c-0.91,0-1.614-0.757-1.614-1.615c0-0.102,0-0.252,0-0.353C38.479,45.647,53.371,33.228,72,33.228
		c9.896,0,19.536,3.938,26.705,10.704l6.565-6.514c0.604-0.605,1.414-0.959,2.271-0.959c1.767,0,3.231,1.464,3.231,3.231V62.307z"/>
</g>
</svg>
