<?xml version="1.0" encoding="utf-8"?>
<!-- Generator: Adobe Illustrator 17.1.0, SVG Export Plug-In . SVG Version: 6.00 Build 0)  -->
<!DOCTYPE svg PUBLIC "-//W3C//DTD SVG 1.1//EN" "http://www.w3.org/Graphics/SVG/1.1/DTD/svg11.dtd">
<svg version="1.1" id="Layer_1" xmlns="http://www.w3.org/2000/svg" xmlns:xlink="http://www.w3.org/1999/xlink" x="0px" y="0px"
	 viewBox="0 0 144 144" enable-background="new 0 0 144 144" xml:space="preserve">
<g>
	<path d="M137.236,102.443v6.524c0,3.602-4.892,6.523-10.873,6.523H17.637c-5.98,0-10.873-2.922-10.873-6.523v-6.524h10.873h108.727
		H137.236z M24.16,87.222V39.382c0-5.981,4.892-10.873,10.873-10.873h73.934c5.981,0,10.873,4.892,10.873,10.873v47.839
		c0,5.981-4.892,10.873-10.873,10.873H35.033C29.052,98.095,24.16,93.202,24.16,87.222z M32.858,87.222
		c0,1.156,1.019,2.175,2.175,2.175h73.934c1.156,0,2.175-1.019,2.175-2.175V39.382c0-1.156-1.019-2.175-2.175-2.175H35.033
		c-1.156,0-2.175,1.019-2.175,2.175V87.222z M78.524,107.879c0-0.611-0.476-1.086-1.086-1.086H66.563
		c-0.611,0-1.086,0.476-1.086,1.086c0,0.613,0.476,1.088,1.086,1.088h10.875C78.048,108.967,78.524,108.491,78.524,107.879z"/>
	<g>
		<path d="M79.332,53.788L76.31,78.778l-7.003,5.492l-5.492-7.003l3.022-24.991L79.332,53.788z M74.058,74.59l-7.059-0.854
			l-0.331,2.734l1.413,1.801l2.155-1.69l1.69,2.155l1.801-1.413L74.058,74.59z M69.62,54.716c-0.101,0.08-0.176,0.192-0.194,0.343
			l-1.969,16.28c-0.018,0.151,0.027,0.278,0.106,0.379c0.172,0.219,0.442,0.252,0.661,0.08c0.101-0.08,0.175-0.192,0.194-0.343
			l1.969-16.28c0.018-0.151-0.027-0.278-0.107-0.379C70.108,54.577,69.838,54.544,69.62,54.716z M80.167,46.879l-0.603,4.986
			l-12.495-1.511l0.616-4.969c0.07-0.708,0.441-1.379,1.013-1.828c0.573-0.449,1.313-0.649,2.034-0.562l7.045,0.836
			c0.704,0.101,1.375,0.471,1.824,1.044C80.051,45.448,80.251,46.189,80.167,46.879z"/>
		<path d="M59.387,78.675c-0.417,0.417-1.06,0.417-1.477,0L42.955,63.718c-0.418-0.417-0.418-1.059,0-1.475L57.91,47.286
			c0.418-0.417,1.06-0.417,1.477,0l1.605,1.606c0.417,0.417,0.417,1.059,0,1.476L48.377,62.98l12.615,12.614
			c0.417,0.417,0.417,1.059,0,1.475L59.387,78.675z M86.09,78.675c-0.418,0.417-1.06,0.417-1.477,0l-1.605-1.606
			c-0.417-0.417-0.417-1.059,0-1.475L95.623,62.98L83.008,50.367c-0.417-0.417-0.417-1.059,0-1.476l1.605-1.606
			c0.417-0.417,1.06-0.417,1.477,0l14.955,14.957c0.418,0.417,0.418,1.059,0,1.475L86.09,78.675z"/>
	</g>
</g>
</svg>
